<svg width="88.175" height="23.025" viewBox="0 0 88.175 23.025" xmlns="http://www.w3.org/2000/svg"><g id="svgGroup" stroke-linecap="round" fill-rule="evenodd" font-size="9pt" stroke="#000" stroke-width="0.25mm" fill="#000" style="stroke:#000;stroke-width:0.25mm;fill:#000"><path d="M 83.85 18.4 L 81.825 18.4 A 85.652 85.652 0 0 1 81.15 16.6 Q 80.805 15.652 80.442 14.593 A 141.778 141.778 0 0 1 80.337 14.288 A 67.86 67.86 0 0 1 78.941 9.631 A 73.776 73.776 0 0 1 78.9 9.475 A 73.167 73.167 0 0 1 77.571 13.998 A 67.142 67.142 0 0 1 77.475 14.288 A 111.479 111.479 0 0 1 76.765 16.343 Q 76.421 17.306 76.093 18.159 A 66.091 66.091 0 0 1 76 18.4 L 73.975 18.4 Q 72.825 15.825 71.725 12.525 A 96.039 96.039 0 0 1 70.399 8.195 A 115.996 115.996 0 0 1 69.65 5.4 L 72.15 5.4 Q 72.4 6.575 72.75 7.95 Q 73.1 9.325 73.488 10.7 A 59.62 59.62 0 0 0 74.194 13.03 A 54.383 54.383 0 0 0 74.3 13.35 A 55.448 55.448 0 0 0 74.662 14.404 Q 74.889 15.041 75.1 15.575 A 59.532 59.532 0 0 0 75.724 13.755 A 68.705 68.705 0 0 0 75.938 13.088 Q 76.35 11.775 76.725 10.438 Q 77.1 9.1 77.438 7.813 Q 77.775 6.525 78.025 5.4 L 79.95 5.4 Q 80.175 6.525 80.5 7.813 Q 80.825 9.1 81.2 10.438 Q 81.575 11.775 81.988 13.088 A 64.135 64.135 0 0 0 82.607 14.96 A 55.448 55.448 0 0 0 82.825 15.575 Q 83.147 14.759 83.497 13.703 A 53.027 53.027 0 0 0 83.612 13.35 A 91.922 91.922 0 0 0 84.325 11.043 A 101.48 101.48 0 0 0 84.425 10.7 Q 84.825 9.325 85.175 7.95 Q 85.525 6.575 85.775 5.4 L 88.175 5.4 A 110.718 110.718 0 0 1 86.907 9.977 A 91.514 91.514 0 0 1 86.1 12.525 Q 85 15.825 83.85 18.4 Z M 34.975 12.525 L 26.075 12.525 Q 26.183 13.987 26.747 14.941 A 3.465 3.465 0 0 0 27.25 15.6 Q 28.053 16.423 29.562 16.601 A 7.585 7.585 0 0 0 30.45 16.65 A 11.77 11.77 0 0 0 31.314 16.62 Q 31.989 16.571 32.513 16.438 A 13.95 13.95 0 0 0 32.905 16.332 Q 33.327 16.212 33.613 16.096 A 3.298 3.298 0 0 0 33.775 16.025 L 34.1 17.975 A 2.549 2.549 0 0 1 33.848 18.089 Q 33.409 18.263 32.613 18.45 Q 31.55 18.7 30.2 18.7 A 9.486 9.486 0 0 1 28.824 18.606 Q 28.079 18.496 27.447 18.26 A 5.625 5.625 0 0 1 27.263 18.188 A 5.886 5.886 0 0 1 25.949 17.444 A 5.049 5.049 0 0 1 25.225 16.775 A 5.683 5.683 0 0 1 24.127 14.905 A 6.636 6.636 0 0 1 24.038 14.638 A 8.481 8.481 0 0 1 23.692 12.868 A 10.397 10.397 0 0 1 23.65 11.925 A 10.102 10.102 0 0 1 23.746 10.5 Q 23.857 9.718 24.099 9.05 A 6.191 6.191 0 0 1 24.15 8.913 A 7.097 7.097 0 0 1 24.752 7.701 A 5.613 5.613 0 0 1 25.475 6.775 Q 26.3 5.925 27.375 5.5 Q 28.45 5.075 29.575 5.075 A 6.716 6.716 0 0 1 31.218 5.264 A 4.491 4.491 0 0 1 33.6 6.713 A 5.095 5.095 0 0 1 34.519 8.363 Q 34.782 9.114 34.901 10.042 A 13.051 13.051 0 0 1 35 11.7 L 35 12.088 A 3.942 3.942 0 0 1 34.992 12.343 A 3.08 3.08 0 0 1 34.975 12.525 Z M 67.825 12.525 L 58.925 12.525 Q 59.033 13.987 59.597 14.941 A 3.465 3.465 0 0 0 60.1 15.6 Q 60.903 16.423 62.412 16.601 A 7.585 7.585 0 0 0 63.3 16.65 A 11.77 11.77 0 0 0 64.164 16.62 Q 64.839 16.571 65.363 16.438 A 13.95 13.95 0 0 0 65.755 16.332 Q 66.177 16.212 66.463 16.096 A 3.298 3.298 0 0 0 66.625 16.025 L 66.95 17.975 A 2.549 2.549 0 0 1 66.698 18.089 Q 66.259 18.263 65.463 18.45 Q 64.4 18.7 63.05 18.7 A 9.486 9.486 0 0 1 61.674 18.606 Q 60.929 18.496 60.297 18.26 A 5.625 5.625 0 0 1 60.113 18.188 A 5.886 5.886 0 0 1 58.799 17.444 A 5.049 5.049 0 0 1 58.075 16.775 A 5.683 5.683 0 0 1 56.977 14.905 A 6.636 6.636 0 0 1 56.888 14.638 A 8.481 8.481 0 0 1 56.542 12.868 A 10.397 10.397 0 0 1 56.5 11.925 A 10.102 10.102 0 0 1 56.596 10.5 Q 56.707 9.718 56.949 9.05 A 6.191 6.191 0 0 1 57 8.913 A 7.097 7.097 0 0 1 57.602 7.701 A 5.613 5.613 0 0 1 58.325 6.775 Q 59.15 5.925 60.225 5.5 Q 61.3 5.075 62.425 5.075 A 6.716 6.716 0 0 1 64.068 5.264 A 4.491 4.491 0 0 1 66.45 6.713 A 5.095 5.095 0 0 1 67.369 8.363 Q 67.632 9.114 67.751 10.042 A 13.051 13.051 0 0 1 67.85 11.7 L 67.85 12.088 A 3.942 3.942 0 0 1 67.842 12.343 A 3.08 3.08 0 0 1 67.825 12.525 Z M 46.1 5.4 L 48.5 5.4 Q 47.525 9.05 46.213 12.4 Q 44.9 15.75 43.675 18.4 L 41.575 18.4 Q 40.35 15.75 39.038 12.4 Q 37.725 9.05 36.75 5.4 L 39.25 5.4 Q 39.55 6.625 39.963 8.013 Q 40.375 9.4 40.838 10.763 A 95.596 95.596 0 0 0 41.745 13.321 A 88.449 88.449 0 0 0 41.775 13.4 A 64.761 64.761 0 0 0 42.223 14.571 Q 42.441 15.123 42.648 15.611 A 38.873 38.873 0 0 0 42.675 15.675 A 45.768 45.768 0 0 0 43.098 14.642 Q 43.316 14.094 43.544 13.482 A 74.695 74.695 0 0 0 43.575 13.4 Q 44.05 12.125 44.513 10.763 Q 44.975 9.4 45.388 8.013 Q 45.8 6.625 46.1 5.4 Z M 2.325 17.825 L 2.325 23.025 L 0 23.025 L 0 5.8 Q 0.815 5.603 2.033 5.368 A 75.795 75.795 0 0 1 2.063 5.363 A 12.333 12.333 0 0 1 3.219 5.2 Q 3.813 5.144 4.476 5.13 A 21.141 21.141 0 0 1 4.925 5.125 A 8.151 8.151 0 0 1 6.434 5.259 A 6.489 6.489 0 0 1 7.625 5.6 A 5.841 5.841 0 0 1 9.45 6.731 A 5.588 5.588 0 0 1 9.675 6.95 A 5.779 5.779 0 0 1 10.784 8.591 A 6.917 6.917 0 0 1 10.988 9.088 A 7.498 7.498 0 0 1 11.384 10.777 A 9.616 9.616 0 0 1 11.45 11.925 A 9.837 9.837 0 0 1 11.302 13.66 A 8.249 8.249 0 0 1 11.063 14.65 A 6.628 6.628 0 0 1 10.475 16.011 A 5.64 5.64 0 0 1 9.925 16.8 Q 9.175 17.7 8.088 18.2 A 5.412 5.412 0 0 1 6.566 18.636 A 6.986 6.986 0 0 1 5.6 18.7 A 7.178 7.178 0 0 1 4.603 18.634 A 5.218 5.218 0 0 1 3.613 18.4 Q 2.836 18.13 2.415 17.881 A 2.644 2.644 0 0 1 2.325 17.825 Z M 22.125 5.5 L 21.725 7.525 A 2.938 2.938 0 0 0 21.565 7.473 Q 21.381 7.418 21.104 7.353 A 17.274 17.274 0 0 0 20.813 7.288 Q 20.379 7.194 19.778 7.164 A 12.157 12.157 0 0 0 19.175 7.15 Q 18.525 7.15 17.888 7.288 Q 17.25 7.425 17.05 7.475 L 17.05 18.4 L 14.725 18.4 L 14.725 5.95 A 11.223 11.223 0 0 1 15.4 5.731 Q 15.776 5.62 16.212 5.516 A 23.295 23.295 0 0 1 16.775 5.388 A 11.464 11.464 0 0 1 18.161 5.183 A 15.42 15.42 0 0 1 19.525 5.125 A 5.78 5.78 0 0 1 19.804 5.133 Q 19.947 5.139 20.105 5.153 A 9.982 9.982 0 0 1 20.212 5.163 Q 20.6 5.2 20.975 5.263 A 26.783 26.783 0 0 1 20.981 5.264 Q 21.167 5.295 21.337 5.326 A 19.051 19.051 0 0 1 21.663 5.388 A 8.499 8.499 0 0 1 21.809 5.418 Q 22.013 5.463 22.125 5.5 Z M 53.225 5.4 L 53.225 18.4 L 50.9 18.4 L 50.9 5.4 L 53.225 5.4 Z M 2.325 7.45 L 2.325 15.65 A 3.031 3.031 0 0 0 2.661 15.888 Q 3.025 16.112 3.55 16.325 A 4.467 4.467 0 0 0 4.92 16.637 A 5.302 5.302 0 0 0 5.3 16.65 A 4.623 4.623 0 0 0 6.093 16.586 Q 6.601 16.497 7.013 16.288 Q 7.725 15.925 8.175 15.288 A 3.99 3.99 0 0 0 8.684 14.28 A 4.924 4.924 0 0 0 8.825 13.788 A 7.765 7.765 0 0 0 9.004 12.552 A 9.37 9.37 0 0 0 9.025 11.925 A 7.375 7.375 0 0 0 8.907 10.561 Q 8.66 9.253 7.9 8.425 Q 6.775 7.2 4.9 7.2 A 24.789 24.789 0 0 0 4.404 7.205 Q 3.867 7.216 3.483 7.251 A 6.401 6.401 0 0 0 3.263 7.275 Q 2.688 7.349 2.341 7.446 A 3.016 3.016 0 0 0 2.325 7.45 Z M 26.125 10.65 L 32.575 10.65 A 5.892 5.892 0 0 0 32.576 10.557 Q 32.576 9.045 31.788 8.063 A 2.646 2.646 0 0 0 29.854 7.062 A 3.745 3.745 0 0 0 29.55 7.05 A 3.481 3.481 0 0 0 28.797 7.128 A 2.752 2.752 0 0 0 28.138 7.363 Q 27.525 7.675 27.1 8.175 A 3.737 3.737 0 0 0 26.441 9.315 A 4.269 4.269 0 0 0 26.437 9.325 Q 26.2 9.975 26.125 10.65 Z M 58.975 10.65 L 65.425 10.65 A 5.892 5.892 0 0 0 65.426 10.557 Q 65.426 9.045 64.638 8.063 A 2.646 2.646 0 0 0 62.704 7.062 A 3.745 3.745 0 0 0 62.4 7.05 A 3.481 3.481 0 0 0 61.647 7.128 A 2.752 2.752 0 0 0 60.988 7.363 Q 60.375 7.675 59.95 8.175 A 3.737 3.737 0 0 0 59.291 9.315 A 4.269 4.269 0 0 0 59.287 9.325 Q 59.05 9.975 58.975 10.65 Z M 52.05 3.05 Q 51.425 3.05 50.988 2.638 A 1.367 1.367 0 0 1 50.574 1.838 A 1.951 1.951 0 0 1 50.55 1.525 A 1.81 1.81 0 0 1 50.612 1.041 A 1.336 1.336 0 0 1 50.987 0.413 Q 51.425 0 52.05 0 Q 52.675 0 53.113 0.413 A 1.367 1.367 0 0 1 53.526 1.213 A 1.951 1.951 0 0 1 53.55 1.525 A 1.81 1.81 0 0 1 53.488 2.01 A 1.336 1.336 0 0 1 53.113 2.638 Q 52.675 3.05 52.05 3.05 Z" vector-effect="non-scaling-stroke"/></g></svg>